<?xml version="1.0" encoding="utf-8"?>
<svg version="1.1" id="Layer_1" xmlns="http://www.w3.org/2000/svg" xmlns:xlink="http://www.w3.org/1999/xlink" x="0px" y="0px"
	 viewBox="0 0 291.3 291.3" style="enable-background:new 0 0 291.3 291.3;" xml:space="preserve">
<style type="text/css">
	.st0{fill:none;}
	.st1{fill:red;}
	.st2{fill:#ffffff;}
</style>
<g>
	<g>
		<path class="st0" d="M145.7,0C65.5,0,0,65.5,0,145.7s65.5,145.7,145.7,145.7s145.7-65.5,145.7-145.7S225.8,0,145.7,0z M145.7,264
			c-65.5,0-118.3-52.8-118.3-118.3S80.1,27.3,145.7,27.3S264,80.1,264,145.7S211.2,264,145.7,264z"/>
		<path class="st1" d="M221.2,70.1l-56.4,94.7l-38.2-38.2C126.5,126.5,221.2,70.1,221.2,70.1z"/>
		<path class="st2" d="M70.1,221.2l94.7-56.4l-38.2-38.2C126.5,126.5,70.1,221.2,70.1,221.2z"/>
	</g>
</g>
</svg>
