<svg xmlns="http://www.w3.org/2000/svg" xmlns:xlink="http://www.w3.org/1999/xlink" version="1.1" x="0px" y="0px" viewBox="0 0 1024 1280" style="enable-background:new 0 0 1024 1024;" xml:space="preserve">
    <g>
        <path fill="#fff" d="M852.6,476.3c0-0.1,0-0.2,0-0.3C835.8,315.6,708.4,188.2,548,171.4c-0.1,0-0.2,0-0.3,0   c-11.7-1.2-23.7-1.8-35.7-1.8s-24,0.6-35.7,1.8c-0.1,0-0.2,0-0.3,0C315.6,188.2,188.2,315.6,171.4,476c0,0.1,0,0.2,0,0.3   c-1.2,11.7-1.8,23.7-1.8,35.7s0.6,24,1.8,35.7c0,0.1,0,0.2,0,0.3C188.2,708.4,315.6,835.8,476,852.6c0.1,0,0.2,0,0.3,0   c11.7,1.2,23.7,1.8,35.7,1.8s24-0.6,35.7-1.8c0.1,0,0.2,0,0.3,0C708.4,835.8,835.8,708.4,852.6,548c0-0.1,0-0.2,0-0.3   c1.2-11.7,1.8-23.6,1.8-35.7S853.8,488,852.6,476.3z M547.7,781.2c-2.8,0.4-5.7,0.7-8.5,1c-0.3,0-0.6,0.1-0.9,0.1   c-1.2,0.1-2.5,0.2-3.7,0.3c-1.1,0.1-2.3,0.2-3.4,0.3c-0.5,0.1-1.1,0.1-1.7,0.1c-1.5,0.1-3,0-4.5,0.1c-1.3,0.1-2.5,0-3.8,0h-4.6   c-1.5,1-3,0-4.5,0s-3,1-4.5,0h-4.6c-1.3,0-2.5,0.1-3.8,0c-1.5-0.1-3,0-4.5-0.1c-0.5,0-1.1-0.1-1.7-0.1c-1.1-0.1-2.3-0.1-3.4-0.3   c-0.6,0-1.2-0.1-1.9-0.2c-0.6,0-1.2-0.1-1.9-0.2c-0.8-0.1-1.6-0.2-2.4-0.2c0.5,0.1,1,0.1,1.5,0.1c-2.9-0.3-5.7-0.6-8.5-1   c-121.4-16-217.5-112.1-233.5-233.5c-0.4-3.3-0.8-6.5-1.1-9.8c-0.1-1.1-0.2-2.3-0.3-3.4c-0.6-7.5-0.9-15-0.9-22.5s0.3-15,0.9-22.5   c0.1-1.1,0.2-2.2,0.3-3.4c0.3-3.3,0.7-6.6,1.1-9.8c16-121.4,112.1-217.5,233.5-233.5c4.4-0.6,8.8-1.1,13.2-1.4   c7.5-0.6,15-0.9,22.5-0.9s15,0.3,22.5,0.9c4.4,0.4,8.8,0.8,13.2,1.4c121.4,15.9,217.5,112.1,233.5,233.5c0.4,3.3,0.8,6.5,1.1,9.8   c0.1,1.1,0.2,2.3,0.3,3.4c0.6,7.5,0.9,15,0.9,22.5s-0.3,15-0.9,22.5c-0.1,1.1-0.2,2.2-0.3,3.4c-0.3,3.3-0.7,6.6-1.1,9.8   C765.2,669.1,669.1,765.2,547.7,781.2z"/>
        <g>
            <path d="M862.6,476.3c-7.2-69.9-35.2-136.2-80.1-190.2c-44.3-53.2-104.5-92.7-170.9-112.3    c-73.3-21.6-153.8-18.6-225.2,8.8c-65.1,25-121.6,68.9-162.1,125.7c-42.5,59.6-65.2,132.4-64.8,205.5    c0.4,72.8,23.6,144.9,66.3,203.9c40.8,56.3,97.3,99.7,162.4,124.3c71.5,27,152.1,29.5,225.3,7.5c66-19.9,125.9-59.5,169.8-112.7    c44.8-54.3,72.5-120.9,79.4-191C865.1,522.7,864.9,499.4,862.6,476.3c-0.5-5.4-4.2-10-10-10c-5,0-10.5,4.6-10,10    c7.4,72.8-8.6,146.4-46.8,209c-33.9,55.5-83.9,100.1-142.7,127.9c-65.2,30.8-140.7,39.1-211.2,23.9    c-64.3-13.9-123.5-47-169.2-94.3c-45.7-47.3-76.4-107.6-88-172.3c-12.8-71.1-1.6-146.3,31.6-210.5c29.8-57.7,76.3-106,133-137.9    c62.8-35.3,136.7-49.3,208-39.5c65.4,9,127.6,37.8,176.6,81.9c48.6,43.7,83.8,101.2,100.1,164.6c4,15.5,6.9,31.3,8.6,47.2    c0.6,5.4,4.2,10,10,10C857.6,486.3,863.2,481.7,862.6,476.3z"/><path  d="M547.7,771.2c-6.8,0.9-13.7,1.7-20.5,1.8c-4.8,0.1-10.1-0.6-14.8,0.8c1.8,0,3.5,0,5.3,0    c-4-0.5-7.4-0.5-11.4,0c1.8,0,3.5,0,5.3,0c-3.8-1.1-7.7-0.8-11.6-0.8c-5.6,0-11.2-0.4-16.7-1c0,6.7,0,13.3,0,20    c0.5,0,1,0.1,1.5,0.1c5.4,0.5,10-5,10-10c0-5.9-4.6-9.5-10-10c-49.6-5-97.9-24.8-136.6-56.2c-38.3-31-67.8-72.4-83.7-119.1    c-18.3-53.9-18.7-113-0.9-167.1c15.4-46.9,44.5-88.6,82.5-120c38.3-31.7,86.4-52.1,135.8-57.6c55.8-6.2,112.6,5.3,161.2,33.6    c42.5,24.7,77.5,61.2,100.5,104.7c26.2,49.5,35.7,107.8,26.7,163.1c-8,49.1-29.9,95.5-63.1,132.6c-33,36.8-76,64-123.6,77.5    C571.9,766.9,559.8,769.6,547.7,771.2c-5.4,0.7-10,4.1-10,10c0,4.8,4.6,10.7,10,10c54.1-7.2,104.7-29.3,146.4-64.5    c40.4-34.1,70.7-79.9,86.6-130.4c18.1-57.7,17.1-121.4-3.3-178.4c-17.9-50-49.8-94.7-91.7-127.4c-43.8-34.2-96.6-54.8-152.1-59.2    c-58.7-4.6-118.5,9.7-168.7,40.6c-45,27.7-82.2,68.2-105.5,115.7c-26.9,54.9-35.2,117.4-23.9,177.4    c9.8,52.4,35.3,101.4,71.8,140.2c36.5,38.7,84.2,66.9,135.9,79.8c13.7,3.4,27.6,5.7,41.7,7.1c0-6.7,0-13.3,0-20    c-0.5,0-1-0.1-1.5-0.1c-5.4-0.5-10,5-10,10c0,5.9,4.6,9.5,10,10c6.2,0.6,12.4,1,18.6,1c1.5,0,3.1-0.1,4.6,0c0.2,0,0.4,0,0.7,0    c-1.8,0.1-1.2,0.3,1.8,0.5c1.8,0,3.9-0.5,5.7-0.8c-1.8,0-3.5,0-5.3,0c2.9,0.4,5.4,0.8,8.3,0.4c-1.5,0.2-0.2-0.1,0.7-0.1    c2.4-0.1,4.9,0,7.3,0c7.4,0,14.7-0.9,22.1-1.8c5.4-0.7,10-4.1,10-10C557.7,776.3,553.1,770.5,547.7,771.2z"/>
        </g>
    </g>
    <g>
        <circle fill="#fff" cx="512" cy="512" r="150.6"/>
    <g>
        <path d="M652.6,512c-0.3,58-36.9,111.9-91.7,131.9c-56.1,20.4-119.4,3.1-157.5-42.6    c-37.7-45.2-42-111.7-11.7-161.9c30.2-50,90.5-77,147.9-65.3C597,385.8,641.7,432.6,651,490.5C652.2,497.6,652.5,504.8,652.6,512    c0.1,12.9,20.1,12.9,20,0c-0.3-67.1-42.8-127.7-105.8-151c-62.6-23.1-136.1-3.1-178.4,48.5c-42.8,52.3-49,127.7-13.7,185.7    c35.1,57.5,103.5,87.1,169.5,74c64.4-12.8,116.5-66.9,126.3-131.9c1.3-8.4,2-16.9,2.1-25.5C672.6,499.1,652.6,499.1,652.6,512z"/>
</g>
</g>
    <g>
        <path fill="#fff" d="M548,76v95.4c-0.1,0-0.2,0-0.3,0c-11.7-1.2-23.7-1.8-35.7-1.8s-24,0.6-35.7,1.8c-0.1,0-0.2,0-0.3,0V76H548z   "/>
        <g><path d="M538,76c0,27.8,0,55.6,0,83.4c0,4,0,8,0,12c3.3-3.3,6.7-6.7,10-10c-23.9-2.5-48.1-2.5-72,0    c3.3,3.3,6.7,6.7,10,10c0-27.8,0-55.6,0-83.4c0-4,0-8,0-12c-3.3,3.3-6.7,6.7-10,10c24,0,48,0,72,0c12.9,0,12.9-20,0-20    c-24,0-48,0-72,0c-5.4,0-10,4.6-10,10c0,27.8,0,55.6,0,83.4c0,4,0,8,0,12c0,5,4.6,10.6,10,10c23.9-2.5,48.1-2.5,72,0    c5.4,0.6,10-5,10-10c0-27.8,0-55.6,0-83.4c0-4,0-8,0-12C558,63.1,538,63.1,538,76z"/></g></g><g><path fill="#fff" d="M548,852.6V948h-72v-95.4c0.1,0,0.2,0,0.3,0c11.7,1.2,23.7,1.8,35.7,1.8s24-0.6,35.7-1.8   C547.8,852.6,547.9,852.6,548,852.6z"/><g><path d="M538,852.6c0,27.8,0,55.6,0,83.4c0,4,0,8,0,12c3.3-3.3,6.7-6.7,10-10c-24,0-48,0-72,0    c3.3,3.3,6.7,6.7,10,10c0-27.8,0-55.6,0-83.4c0-4,0-8,0-12c-3.3,3.3-6.7,6.7-10,10c23.9,2.5,48.1,2.5,72,0c5.4-0.6,10-4.2,10-10    c0-5-4.6-10.6-10-10c-23.9,2.5-48.1,2.5-72,0c-5.4-0.6-10,5-10,10c0,27.8,0,55.6,0,83.4c0,4,0,8,0,12c0,5.4,4.6,10,10,10    c24,0,48,0,72,0c5.4,0,10-4.6,10-10c0-27.8,0-55.6,0-83.4c0-4,0-8,0-12C558,839.7,538,839.7,538,852.6z"/></g></g><g><path fill="#fff" d="M171.4,547.7c0,0.1,0,0.2,0,0.3H76v-72h95.4c0,0.1,0,0.2,0,0.3c-1.2,11.7-1.8,23.7-1.8,35.7   S170.2,536,171.4,547.7z"/><g><path d="M161.4,547.7c0,0.1,0,0.2,0,0.3c3.3-3.3,6.7-6.7,10-10c-27.8,0-55.6,0-83.4,0c-4,0-8,0-12,0    c3.3,3.3,6.7,6.7,10,10c0-24,0-48,0-72c-3.3,3.3-6.7,6.7-10,10c27.8,0,55.6,0,83.4,0c4,0,8,0,12,0c-3.3-3.3-6.7-6.7-10-10    C159,499.8,159,523.9,161.4,547.7c0.5,5.4,4.2,10,10,10c5,0,10.5-4.6,10-10c-2.4-23.8-2.4-47.9,0-71.7c0.6-5.4-5-10-10-10    c-27.8,0-55.6,0-83.4,0c-4,0-8,0-12,0c-5.4,0-10,4.6-10,10c0,24,0,48,0,72c0,5.4,4.6,10,10,10c27.8,0,55.6,0,83.4,0c4,0,8,0,12,0    c5,0,10.6-4.6,10-10c0-0.1,0-0.2,0-0.3c-0.6-5.4-4.2-10-10-10C166.4,537.7,160.8,542.3,161.4,547.7z"/></g></g><g><path fill="#fff" d="M948,476v72h-95.4c0-0.1,0-0.2,0-0.3c1.2-11.7,1.8-23.6,1.8-35.7s-0.6-24-1.8-35.7c0-0.1,0-0.2,0-0.3H948z"/><g><path d="M938,476c0,24,0,48,0,72c3.3-3.3,6.7-6.7,10-10c-27.8,0-55.6,0-83.4,0c-4,0-8,0-12,0    c3.3,3.3,6.7,6.7,10,10c2.5-23.9,2.5-48.1,0-72c-3.3,3.3-6.7,6.7-10,10c27.8,0,55.6,0,83.4,0c4,0,8,0,12,0c12.9,0,12.9-20,0-20    c-27.8,0-55.6,0-83.4,0c-4,0-8,0-12,0c-5,0-10.6,4.6-10,10c2.5,23.9,2.5,48.1,0,72c-0.6,5.4,5,10,10,10c27.8,0,55.6,0,83.4,0    c4,0,8,0,12,0c5.4,0,10-4.6,10-10c0-24,0-48,0-72C958,463.1,938,463.1,938,476z"/></g></g><text x="0" y="1039" fill="#000000" font-size="5px" font-weight="bold" font-family="'Helvetica Neue', Helvetica, Arial-Unicode, Arial, Sans-serif">Created by shashank singh</text><text x="0" y="1044" fill="#000000" font-size="5px" font-weight="bold" font-family="'Helvetica Neue', Helvetica, Arial-Unicode, Arial, Sans-serif">from the Noun Project</text></svg>
