<?xml version="1.0" encoding="utf-8"?>
<!-- Generator: Adobe Illustrator 23.0.3, SVG Export Plug-In . SVG Version: 6.00 Build 0)  -->
<svg version="1.1" id="Capa_1" xmlns="http://www.w3.org/2000/svg" xmlns:xlink="http://www.w3.org/1999/xlink" x="0px" y="0px"
	 viewBox="0 0 512 512" style="enable-background:new 0 0 512 512;" xml:space="preserve">
<style type="text/css">
	.st0{fill:#2CABF2;}
</style>
<g transform="matrix(1.25 0 0 -1.25 0 45)">
	<g>
		<g>
			<path class="st0" d="M341-19.4c0-21.8-17.1-41.2-43.9-41.2c-27,0-48,16.7-87.2,16.7c-28.3,0-53.7-12.8-53.7-36.1
				c0-57.3,219-20.7,219-164.3c0-79.6-77.3-129.3-167.9-129.3c-50.6,0-159.3,9.9-159.3,62.3c0,21.8,17.1,39.5,43.9,39.5
				c30.9,0,67.5-21.8,110.2-21.8c43.3,0,66.9,20.7,66.9,47.8c0,65.7-219,26.2-219,155.3C50-12.5,125.5,36,212.7,36
				C249.3,36.3,341,24.5,341-19.4"/>
		</g>
	</g>
</g>
</svg>
