<?xml version="1.0" encoding="utf-8"?>
<!-- Generator: Adobe Illustrator 23.0.3, SVG Export Plug-In . SVG Version: 6.00 Build 0)  -->
<svg version="1.1" id="Capa_1" xmlns="http://www.w3.org/2000/svg" xmlns:xlink="http://www.w3.org/1999/xlink" x="0px" y="0px"
	 viewBox="0 0 384 384" style="enable-background:new 0 0 384 384;" xml:space="preserve">
<style type="text/css">
	.st0{fill:red;}
</style>
<g>
	<path class="st0" d="M285.7,5c-20.7,0-37.5,21.2-37.5,47.4v153.4L127.1,22.1C117,6.7,100.3,1.1,85.5,7.8
		c-14.9,6.8-24.7,24.6-24.7,44.5v284.2c0,26.2,16.8,47.4,37.5,47.4s37.5-21.2,37.5-47.4V183.2l121.2,183.7
		c7.3,11,17.9,17.1,28.8,17.1c4.3,0,8.6-0.9,12.7-2.8c14.9-6.8,24.7-24.6,24.7-44.5V52.4C323.2,26.2,306.4,5,285.7,5z"/>
</g>
</svg>
