<svg xmlns="http://www.w3.org/2000/svg" xmlns:xlink="http://www.w3.org/1999/xlink" version="1.1" x="0px" y="0px" viewBox="0 0 95 95" enable-background="new 0 0 95 95" xml:space="preserve">
    <g>
        <path fill="#ffffff" d="M84.064,12.792h-73.13c-2.366,0-4.285,1.918-4.285,4.285L6.65,77.923c0,2.367,1.918,4.285,4.285,4.285h73.129   c2.366,0,4.286-1.918,4.286-4.285V17.077C88.351,14.71,86.431,12.792,84.064,12.792z M42.643,18.29c0-1.182,0.96-2.143,2.143-2.143   h5.428c1.183,0,2.143,0.961,2.143,2.143v5.428c0,1.184-0.96,2.143-2.143,2.143h-5.428c-1.183,0-2.143-0.959-2.143-2.143V18.29z    M27.325,18.29c0-1.182,0.959-2.143,2.142-2.143h5.428c1.184,0,2.142,0.961,2.142,2.143v5.428c0,1.184-0.958,2.143-2.142,2.143   h-5.428c-1.183,0-2.142-0.959-2.142-2.143V18.29z M21.718,76.708c0,1.184-0.959,2.143-2.143,2.143h-5.427   c-1.183,0-2.143-0.959-2.143-2.143V71.28c0-1.182,0.96-2.143,2.143-2.143h5.427c1.184,0,2.143,0.961,2.143,2.143V76.708z    M21.718,23.718c0,1.184-0.959,2.143-2.143,2.143h-5.427c-1.183,0-2.143-0.959-2.143-2.143V18.29c0-1.182,0.96-2.143,2.143-2.143   h5.427c1.184,0,2.143,0.961,2.143,2.143V23.718z M37.036,76.708c0,1.184-0.958,2.143-2.142,2.143h-5.428   c-1.183,0-2.142-0.959-2.142-2.143V71.28c0-1.182,0.959-2.143,2.142-2.143h5.428c1.184,0,2.142,0.961,2.142,2.143V76.708z    M33.551,47.499c0-8.605,7-15.607,15.607-15.607c8.605,0,15.607,7.002,15.607,15.607s-7.002,15.607-15.607,15.607   C40.551,63.106,33.551,56.104,33.551,47.499z M52.355,76.708c0,1.184-0.96,2.143-2.143,2.143h-5.428   c-1.183,0-2.143-0.959-2.143-2.143V71.28c0-1.182,0.96-2.143,2.143-2.143h5.428c1.183,0,2.143,0.961,2.143,2.143V76.708z    M67.674,76.708c0,1.184-0.959,2.143-2.143,2.143h-5.428c-1.182,0-2.142-0.959-2.142-2.143V71.28c0-1.182,0.96-2.143,2.142-2.143   h5.428c1.184,0,2.143,0.961,2.143,2.143V76.708z M67.674,23.718c0,1.184-0.959,2.143-2.143,2.143h-5.428   c-1.182,0-2.142-0.959-2.142-2.143V18.29c0-1.182,0.96-2.143,2.142-2.143h5.428c1.184,0,2.143,0.961,2.143,2.143V23.718z    M82.992,76.708c0,1.184-0.959,2.143-2.143,2.143h-5.427c-1.183,0-2.143-0.959-2.143-2.143V71.28c0-1.182,0.96-2.143,2.143-2.143   h5.427c1.184,0,2.143,0.961,2.143,2.143V76.708z M82.992,23.718c0,1.184-0.959,2.143-2.143,2.143h-5.427   c-1.183,0-2.143-0.959-2.143-2.143V18.29c0-1.182,0.96-2.143,2.143-2.143h5.427c1.184,0,2.143,0.961,2.143,2.143V23.718z"/>
        <path fill="#7b6b50" d="M63.193,47.499c0-7.74-6.297-14.037-14.035-14.037c-7.74,0-14.037,6.297-14.037,14.037s6.297,14.037,14.037,14.037   C56.896,61.536,63.193,55.239,63.193,47.499z M36.64,47.499c0-6.914,5.604-12.518,12.519-12.518   c6.912,0,12.518,5.604,12.518,12.518S56.07,60.017,49.158,60.017C42.244,60.017,36.64,54.413,36.64,47.499z"/>
        <polygon fill="#ffffff" points="45.334,42.372 45.334,52.626 56.123,47.499  "/>
    </g>
</svg>
