<svg width="60" height="50" viewBox="0 0 60 50" fill="none" xmlns="http://www.w3.org/2000/svg">
    <path d="M47.1094 14.0625C46.4625 14.0625 45.9375 14.5875 45.9375 15.2344C45.9375 15.8813 46.4625 16.4062 47.1094 16.4062C47.7563 16.4062 48.2812 15.8813 48.2812 15.2344C48.2812 14.5875 47.7563 14.0625 47.1094 14.0625Z" fill="#C1A779"/>
    <path d="M56.4844 9.375H43.6148L39.8993 1.94379C39.2996 0.744844 38.0947 0 36.7547 0H23.2453C21.905 0 20.7001 0.744844 20.1007 1.94391L16.3852 9.375H14.0625V8.20312C14.0625 6.26461 12.4854 4.6875 10.5469 4.6875H8.20312C6.26461 4.6875 4.6875 6.26461 4.6875 8.20312V9.375H3.51562C1.57711 9.375 0 10.9521 0 12.8906C0 16.0752 0 44.4643 0 45.7031C0 47.6416 1.57711 49.2188 3.51562 49.2188H56.4844C58.4229 49.2188 60 47.6416 60 45.7031C60 42.5186 60 14.1294 60 12.8906C60 10.9521 58.4229 9.375 56.4844 9.375ZM22.1971 2.99203C22.397 2.59219 22.7986 2.34375 23.2453 2.34375H36.7547C37.2014 2.34375 37.6031 2.59219 37.803 2.99203L40.9945 9.375H19.0055L22.1971 2.99203ZM7.03125 8.20312C7.03125 7.55695 7.55695 7.03125 8.20312 7.03125H10.5469C11.193 7.03125 11.7188 7.55695 11.7188 8.20312V9.375H7.03125V8.20312ZM2.34375 21.082H17.1622C15.6048 23.515 14.7656 26.3663 14.7656 29.2969C14.7656 32.2277 15.6049 35.0675 17.1621 37.5H2.34375V21.082ZM30 16.4062C37.0468 16.4062 42.8906 22.1155 42.8906 29.2969C42.8906 36.4702 37.055 42.1875 30 42.1875C22.9386 42.1875 17.1094 36.4638 17.1094 29.2969C17.1094 22.1244 22.9441 16.4062 30 16.4062ZM57.6562 45.7031C57.6562 46.3493 57.1305 46.875 56.4844 46.875H3.51562C2.86945 46.875 2.34375 46.3493 2.34375 45.7031V39.8438H19.0109C21.8743 42.8288 25.8486 44.5312 30 44.5312C34.1521 44.5312 38.1267 42.8283 40.9893 39.8438H57.6562V45.7031ZM57.6562 37.5H42.8378C44.3952 35.0671 45.2344 32.2276 45.2344 29.2969C45.2344 26.3661 44.3952 23.5267 42.8378 21.0938H57.6562V37.5ZM57.6562 18.75H40.9891C38.1258 15.765 34.1515 14.0625 30 14.0625C25.848 14.0625 21.8734 15.7655 19.0107 18.75H2.34375V12.8906C2.34375 12.2445 2.86945 11.7188 3.51562 11.7188C4.5798 11.7188 54.837 11.7188 56.4844 11.7188C57.1305 11.7188 57.6562 12.2445 57.6562 12.8906V18.75Z" fill="#C1A779"/>
    <path d="M33.5156 4.6875H26.4844C25.8371 4.6875 25.3125 5.21215 25.3125 5.85938C25.3125 6.5066 25.8371 7.03125 26.4844 7.03125H33.5156C34.1627 7.03125 34.6875 6.5066 34.6875 5.85938C34.6875 5.21215 34.1627 4.6875 33.5156 4.6875Z" fill="#C1A779"/>
    <path d="M30 18.75C24.1845 18.75 19.4531 23.4813 19.4531 29.2969C19.4531 35.1124 24.1845 39.8438 30 39.8438C35.8155 39.8438 40.5469 35.1124 40.5469 29.2969C40.5469 23.4813 35.8155 18.75 30 18.75ZM30 37.5C25.4768 37.5 21.7969 33.8201 21.7969 29.2969C21.7969 24.7737 25.4768 21.0938 30 21.0938C34.5232 21.0938 38.2031 24.7737 38.2031 29.2969C38.2031 33.8201 34.5232 37.5 30 37.5Z" fill="#C1A779"/>
    <path d="M30 23.4375C26.7691 23.4375 24.1406 26.066 24.1406 29.2969C24.1406 29.9441 24.6653 30.4688 25.3125 30.4688C25.9597 30.4688 26.4844 29.9441 26.4844 29.2969C26.4844 27.3584 28.0615 25.7812 30 25.7812C30.6471 25.7812 31.1719 25.2566 31.1719 24.6094C31.1719 23.9621 30.6471 23.4375 30 23.4375Z" fill="#C1A779"/>
    <path d="M54.1406 14.0625H51.7969C51.1498 14.0625 50.625 14.5871 50.625 15.2344C50.625 15.8816 51.1498 16.4062 51.7969 16.4062H54.1406C54.7877 16.4062 55.3125 15.8816 55.3125 15.2344C55.3125 14.5871 54.7877 14.0625 54.1406 14.0625Z" fill="#C1A779"/>
</svg>
