<svg width="61" height="43" viewBox="0 0 61 43" fill="none" xmlns="http://www.w3.org/2000/svg">
<path d="M57.281 13.5484C56.7955 13.5484 44.6597 19.5484 44.6597 19.5484V16.4516C44.6597 13.9355 42.718 11.9032 40.2909 11.6129C40.5821 10.6452 40.7762 9.67744 40.7762 8.70969C40.7762 3.87098 36.8928 0 32.0384 0C27.1841 0 23.3007 3.87098 23.3007 8.70969C23.3007 9.77425 23.4948 10.742 23.786 11.6129H20.8736C21.1648 10.742 21.359 9.77425 21.359 8.70969C21.359 3.87098 17.4756 0 12.6213 0C7.76693 0 3.88346 3.87098 3.88346 8.70969C3.88346 9.77425 4.07759 10.742 4.36896 11.6129C1.94173 11.8064 0 13.9354 0 16.4516L0 37.742C0 40.4517 2.13586 42.5807 4.85433 42.5807H39.8054C42.5238 42.5807 44.6597 40.4517 44.6597 37.742V34.6453C44.6597 34.6453 56.7955 40.6452 57.281 40.6452C58.9314 40.6452 60.1936 39.2904 60.1936 37.6452V16.5483C60.1936 14.9032 58.9314 13.5484 57.281 13.5484ZM32.0384 1.93549C35.8248 1.93549 38.8345 4.93553 38.8345 8.70969C38.8345 12.4839 35.8248 15.4839 32.0384 15.4839C28.2521 15.4839 25.2424 12.4839 25.2424 8.70969C25.2425 4.93541 28.2521 1.93549 32.0384 1.93549ZM12.6213 1.93549C16.4076 1.93549 19.4173 4.93553 19.4173 8.70969C19.4173 12.4839 16.4076 15.4839 12.6213 15.4839C8.83491 15.4839 5.82519 12.4839 5.82519 8.70969C5.82519 4.93541 8.83491 1.93549 12.6213 1.93549ZM42.718 37.7419C42.718 39.3871 41.4559 40.6451 39.8054 40.6451H4.85433C3.20384 40.6451 1.94173 39.3871 1.94173 37.7419L1.94173 16.4516C1.94173 14.8065 3.20384 13.5484 4.85433 13.5484H5.3397C6.89306 15.871 9.61153 17.4194 12.6211 17.4194C15.6307 17.4194 18.3492 15.871 19.9026 13.5484H24.7569C26.3103 15.871 29.0287 17.4194 32.0383 17.4194C35.0479 17.4194 37.7664 15.871 39.3198 13.5484H39.8051C41.4556 13.5484 42.7177 14.8065 42.7177 16.4516V37.7419H42.718ZM58.2518 37.6452C58.2518 38.3226 57.7664 38.7098 57.281 38.7098C57.0868 38.7098 44.6597 32.5162 44.6597 32.5162V21.6775L56.7955 15.5807C57.378 15.1936 58.2517 15.5807 58.2517 16.4516V37.6452H58.2518Z" fill="#C1A779"/>
<path d="M4.85449 28.0645L4.85449 37.7419H22.3301V28.0645H4.85449ZM20.3883 35.8064H6.79622V29.9999H20.3883V35.8064Z" fill="#C1A779"/>
<path d="M10.6795 31.9354H8.73779V33.8709H10.6795V31.9354Z" fill="#C1A779"/>
<path d="M14.5631 31.9354H12.6213V33.8709H14.5631V31.9354Z" fill="#C1A779"/>
<path d="M18.4464 31.9354H16.5046V33.8709H18.4464V31.9354Z" fill="#C1A779"/>
</svg>
