<svg xmlns="http://www.w3.org/2000/svg" viewBox="0 0 31 5">
  <path fill="#797A7C" d="M3.6279261 3.44029523l-.91902846 1.53441404-.94303146-1.51969615c-.0982839-.15873589-.15478478-.33999312-.162687-.52688068H1.3865595c.00780345.22748523.07457723.44835235.19419712.64166046l1.03726547 1.6715176c.01985433.032004.05492044.05146322.09255478.05146322h.000889c.03793066-.00029633.07299677-.02034822.09255478-.0529449l1.01079302-1.68771714c.11280422-.18876434.17582445-.403606.18352911-.62397924h-.21731111c-.0076059.1809609-.060452.35718046-.15310556.5121628"/>
  <path fill="#797A7C" d="M4.30317101 1.36385789c-.00108655.05719233-.02291644.07586133-.08307211.07546622-.05798256-.00049389-.07793567-.01738489-.07833078-.07368822-.00108656-.14352412-.00108656-.28714701-.00009878-.43067112.00039511-.05808134.02173111-.07625645.08188678-.07576256.05818011.00049389.07842956.01975555.07921978.07921978.00098778.07171267.00029633.14352411.00029633.21533556h.00039512c0 .07003344.00098777.1400669-.00029634.21010034m-.77728235-.10549467c.00098778.03812822-.014224.05403144-.05274733.05324122-.07714545-.00158044-.1542909-.00138289-.23143634-.00079022-.08741834.00059267-.127127.04138789-.12821356.12969522-.00158044.12771967-.00158044.12821356-.12930011.1285099-.2156319.0003951-.43136257-.00098778-.64699446.000889-.05037667.00049388-.06687256-.01679223-.06657623-.0671689.00118534-.17750367-.01481666-.19192522-.19123378-.19182644-.05087056 0-.10183989-.0022719-.1525129.00098777-.04948766.00325967-.07112-.01303866-.06786033-.0652921.003556-.05768623.00069145-.11576757.000889-.17355257.00009878-.06499578.00385234-.06914444.06795912-.06914444.25593322-.00019756.51196523-.00009878.76799724-.00009878.254254.00009878.508508.00098778.76276201-.00069145.04919134-.00029633.07062612.01363134.067564.06598356-.00365477.06282267-.00187677.126238-.00029633.18925823m-.39718545 1.62430181c0 .23726423-.19103623.4369929-.43630146.4369929-.24141289 0-.4369929-.19627145-.4369929-.4369929 0-.24022756.19686412-.4369929.4369929-.4369929.24022756 0 .43630146.19676534.43630146.4369929m-1.88408738-1.5181157c-.00049389.05669845-.02074333.0742809-.07793567.07457722-.06104466.00039512-.082677-.01758244-.08386233-.07457722-.00148167-.07181145-.00029633-.1436229-.00029633-.21533556h-.0004939c0-.07013222-.00079022-.14016567.00019756-.21019912.00079022-.0590691.02153356-.079121.07902223-.07981244.06183489-.00079022.08326966.01807633.08366478.07991122.000889.1418449.00079022.28368979-.00029634.4254359M5.1945417.24470563c-.00879122-.00009877-.01758245 0-.02627489 0-.25978556 0-.51957112.00009879-.7792579-.00009877-.02015067 0-.04030134-.00197555-.05936545-.00296333-.01037167-.094234-.04020256-.13325123-.101346-.13799256-.05976056-.00464256-.08840612.02775656-.12169423.14056078-.01442156 0-.03002845-.00009878-.04563533 0-.26324279 0-.52648557.00019756-.78972836 0-.10124722-.00009878-.15211778.03397956-.15310555.10411178-.00098778.06963834.051562.1071739.15073489.1071739.26146478.00009877.52302834 0 .78449313 0h.06252633c0 .06598355.00167922.12208933-.00118533.17799755-.00069145.01343378-.013335.032004-.02558345.038227-.110236.05640211-.16021756.1471789-.15972367.26877434.00009878.03279422 0 .06558845 0 .10085211h-.18748022C3.6928231.84043443 3.6332601.79450276 3.42592555.7947991c-.17552812.00019755-.35095745 0-.52648557 0-.33347378 0-.66694757-.00069145-1.00042136.0003951-.13986933.0004939-.23114.08366479-.24812978.22106468-.00098778.00809978-.00395111.016002-.00582789.02360789H1.4567905c0-.03042356-.00049389-.0565009.00009878-.08257823.00256822-.12870744-.04346222-.22896689-.16476134-.2867519-.00938388-.004445-.021336-.01649588-.02153355-.0252871-.00187678-.06223-.00108656-.12465756-.00108656-.18975212h.51917601c.11576756.00009878.2316339.00079022.34750023 0C2.20562485.45500353 2.24612374.4294201 2.2610392.3805251c.02331155-.07665156-.0298309-.13542434-.12475634-.1356219-.26679878-.00069144-.53349879-.00059266-.80029757-.00079022h-.06025445C1.25478994.14059386 1.2234774.10295952 1.16282783.1035522c-.060452.00059267-.09048045.03763434-.1107299.14115345H.99105328c-.26146478 0-.52292957-.00009878-.78449313 0C.11123958.24480442.05977636.28233997.06056658.35059542c.00069145.06795911.05254978.10509956.14767278.10519834.26156357 0 .52302835-.00019756.78449313-.00019756h.06608234c0 .06509456.00167922.12278078-.00128411.18017067-.00069145.01293989-.01501423.03012722-.027559.03664656C.92260027.72832165.87143338.81672776.8713346.9365452c0 .14036323-.00049389.28072645.0004939.42118845.00019755.02953456.00296332.05985934.00987777.0885049.03388078.13898033.15330311.21345878.32023756.201803.13216467-.00928511.23459723-.10509956.24892-.23578256.00553156-.04998156.00572912-.10055578.0084949-.15369823h.18392422c.00246945.00780345.00484011.01254478.00543278.01748367.02064456.16881123.10598856.24516645.27499734.24575912.04365978.00009877.08722078 0 .13354756 0 .01086555.06657622.03723922.13038667.08020756.17819511-.38928324.18343034-.6739608.5534519-.7379688.99409958h.21928667c.0520559-.29643212.22432434-.55246412.46474946-.71505235.01076678-.00730956.02182989-.014224.03279422-.02113844.13858523-.0867269.29761745-.14332656.46820668-.16021756v.44133912c-.3089769.05166078-.5454509.32023756-.5454509.64363601 0 .35797068.28833234.65331624.65331623.65331624.36952768 0 .65341502-.29929667.65341502-.65331624 0-.32349723-.23657278-.59207401-.54554968-.64373479V1.7976899c.17088556.016891.3303129.073787.4689969.16081022.01175455.00740834.02350911.01491545.03506611.02281767.23844956.162687.40923634.41773123.46109468.71278046h.21987934c-.063119-.43491857-.34117846-.80118657-.72275702-.98698758.01274233-.01412522.02420056-.030226.03427589-.04879622.02232378-.04069645.03941233-.08425745.06282267-.13532556.18372667.00809978.36607045-.00671689.3792079-.26590978h.18422055c.00543278.06627989.00306212.130683.01718734.191135.03318933.14194367.1649589.21770623.3320909.19883967.1373011-.01560689.23746178-.12455878.24032633-.268478.00296334-.14737645.00069145-.29485168.000889-.44222813.00019756-.12011378-.051562-.20832233-.15922978-.26344033-.0110631-.00563034-.02657122-.0173849-.02686755-.02667C4.3250009.58390853 4.32618624.5213822 4.32618624.45549741h.0706261c.2650208 0 .53004158.00039511.79506236-.00019755.08228189-.00019756.13147322-.04020256.132461-.10430934.00098778-.064008-.04849989-.10460567-.129794-.1062849M7.35139404 2.6652749h.70487823c.32813979 0 .55098246-.13364634.55098246-.47403457 0-.37258979-.27549123-.4698859-.59553123-.4698859h-.66032946zm.74537712-1.3652077c.59553124 0 1.0046688.27549122 1.0046688.87912224 0 .54683379-.35243911.8953218-.9357219.8953218h-.81432402v1.10996591h-.5063349V1.3000672zM11.51134122 4.18442776H9.53440273V1.30001781h.51048357V3.7468422h1.46645492zM12.91253366 1.82265104l-.44963645 1.2153618h.87902346zm1.38140725 2.36177672h-.5427839l-.27549122-.76572535h-1.14236503l-.283591.76572535h-.52263324L12.6411911 1.2960667h.53873401zM16.26231537 1.7375441h-.91952235v2.44692317h-.50643368V1.73754411h-.91952236v-.4374868h2.34547839zM18.59122872 1.72946408h-1.48670436v.78587602h1.30445936v.40923634h-1.30445936v1.25981181h-.5103848V1.30007707h1.99708916zM19.35646018 2.734123c0 .67247913.34028946 1.09376636.88307336 1.09376636.52668312 0 .86697257-.429387.86697257-1.08971646s-.34028945-1.0816167-.87497357-1.0816167c-.5308318 0-.87507236.42533712-.87507236 1.0775668m2.26043072.00819856c0 .89927291-.56303334 1.5110037-1.38535836 1.5110037-.82647369 0-1.38555592-.61173079-1.38555592-1.5110037 0-.8468219.51048356-1.51110248 1.39355692-1.51110248.81432402 0 1.37735736.61578068 1.37735736 1.51110248M22.57233873 2.61670586h.66842924c.33218968 0 .66447813-.04869745.66447813-.4618849 0-.38068956-.29583945-.44153668-.59958113-.44153668h-.73332624zm.8629227-1.31660903c.51848456 0 .97226968.20654434.97226968.80207557 0 .34838923-.17414523.60363102-.47808446.7090269.36873746.08089901.40518646.3605389.4294858.6561808.02825044.34433934.036449.58743146.15389577.7170279h-.5427839c-.07299678-.109347-.07704667-.30789033-.09314745-.57528179-.028448-.45368634-.14184489-.6156819-.632079-.6156819h-.67247914v1.1909637h-.502285V1.30009683zM27.92332863 4.18442776h-.48213434v-2.2240805l-.80207558 2.2240805h-.41318745l-.8224238-2.2240805v2.2240805h-.4778869V1.30001781h.70882935l.80612547 2.2564796.77787501-2.2564796h.70487824zM29.57551541 1.82265104l-.44963645 1.2153618h.87902346zm1.38140726 2.36177672h-.5427839l-.27559001-.76572535h-1.14236503l-.283591.76572535h-.52253446l1.11411458-2.88836106h.53873401z"/>
</svg>
