<?xml version="1.0" encoding="iso-8859-1"?>
<!-- Generator: Adobe Illustrator 19.0.0, SVG Export Plug-In . SVG Version: 6.00 Build 0)  -->
<svg version="1.1" id="Capa_1" xmlns="http://www.w3.org/2000/svg" xmlns:xlink="http://www.w3.org/1999/xlink" x="0px" y="0px"
	 viewBox="0 0 480 480" style="enable-background:new 0 0 480 480;" xml:space="preserve">
<g>
	<g>
		<path d="M378.216,60H29.784C13.283,60.079-0.04,73.499,0,90v220c-0.04,16.501,13.283,29.921,29.784,30H176v64h-72
			c-4.418,0-8,3.582-8,8s3.582,8,8,8h200c4.418,0,8-3.582,8-8s-3.582-8-8-8h-72v-64h72c4.418,0,8-3.582,8-8s-3.582-8-8-8H29.784
			c-7.67-0.066-13.837-6.33-13.784-14v-10h288c4.418,0,8-3.582,8-8s-3.582-8-8-8H16V90c-0.053-7.67,6.114-13.934,13.784-14h348.432
			c7.67,0.066,13.837,6.33,13.784,14v34c0,4.418,3.582,8,8,8s8-3.582,8-8V90C408.04,73.499,394.717,60.079,378.216,60z M192,340h24
			v64h-24V340z"/>
	</g>
</g>
<g>
	<g>
		<path d="M456,148H352c-13.255,0-24,10.745-24,24v224c0,13.255,10.745,24,24,24h104c13.255,0,24-10.745,24-24V172
			C480,158.745,469.255,148,456,148z M464,396c0,4.418-3.582,8-8,8H352c-4.418,0-8-3.582-8-8v-16h120V396z M464,364H344V196h120V364
			z M464,180H344v-8c0-4.418,3.582-8,8-8h104c4.418,0,8,3.582,8,8V180z"/>
	</g>
</g>
<g>
	<g>
		<path d="M269.46,150.344c-3.1-2.994-8.015-2.994-11.116,0L200,208.688l-26.344-26.344c-3.178-3.069-8.243-2.981-11.312,0.197
			c-2.994,3.1-2.994,8.015,0,11.115l32,32c3.124,3.123,8.188,3.123,11.312,0l64-64C272.726,158.478,272.638,153.413,269.46,150.344z
			"/>
	</g>
</g>
<g>
	<g>
		<path d="M430.183,262.66c-2.891-3.341-7.943-3.706-11.284-0.815c-0.08,0.069-0.158,0.139-0.235,0.211h-0.016l-21.312,19.2l-8-7.2
			c-3.224-3.021-8.287-2.855-11.308,0.369c-3.021,3.224-2.855,8.287,0.369,11.308c0.077,0.072,0.155,0.142,0.235,0.211l13.368,12
			c3.043,2.739,7.661,2.739,10.704,0l26.664-24C432.709,271.053,433.074,266.001,430.183,262.66z"/>
	</g>
</g>
<g>
	<g>
		<path d="M216,92c-48.577,0.057-87.943,39.423-88,88c0,48.601,39.399,88,88,88s88-39.399,88-88S264.601,92,216,92z M216,252
			c-39.764,0-72-32.236-72-72c0-39.765,32.236-72,72-72c39.746,0.044,71.956,32.254,72,72C288,219.765,255.765,252,216,252z"/>
	</g>
</g>
<g>
	<g>
		<path d="M404,228c-28.719,0-52,23.281-52,52s23.281,52,52,52s52-23.281,52-52C455.965,251.296,432.704,228.035,404,228z M404,316
			c-19.882,0-36-16.118-36-36s16.118-36,36-36s36,16.118,36,36C439.978,299.873,423.873,315.978,404,316z"/>
	</g>
</g>
<g>
</g>
<g>
</g>
<g>
</g>
<g>
</g>
<g>
</g>
<g>
</g>
<g>
</g>
<g>
</g>
<g>
</g>
<g>
</g>
<g>
</g>
<g>
</g>
<g>
</g>
<g>
</g>
<g>
</g>
</svg>
