<?xml version="1.0" encoding="iso-8859-1"?>
<!-- Generator: Adobe Illustrator 19.0.0, SVG Export Plug-In . SVG Version: 6.00 Build 0)  -->
<svg version="1.1" id="Capa_1" xmlns="http://www.w3.org/2000/svg" xmlns:xlink="http://www.w3.org/1999/xlink" x="0px" y="0px"
	 viewBox="0 0 480 480" style="enable-background:new 0 0 480 480;" xml:space="preserve">
<g>
	<g>
		<circle cx="360" cy="292.051" r="16"/>
	</g>
</g>
<g>
	<g>
		<path d="M272,284.051H112c-4.418,0-8,3.582-8,8s3.582,8,8,8h160c4.418,0,8-3.582,8-8S276.418,284.051,272,284.051z"/>
	</g>
</g>
<g>
	<g>
		<path d="M328,284.051h-24c-4.418,0-8,3.582-8,8s3.582,8,8,8h24c4.418,0,8-3.582,8-8S332.418,284.051,328,284.051z"/>
	</g>
</g>
<g>
	<g>
		<circle cx="360" cy="388.051" r="16"/>
	</g>
</g>
<g>
	<g>
		<path d="M272,380.051H112c-4.418,0-8,3.582-8,8s3.582,8,8,8h160c4.418,0,8-3.582,8-8S276.418,380.051,272,380.051z"/>
	</g>
</g>
<g>
	<g>
		<path d="M328,380.051h-24c-4.418,0-8,3.582-8,8s3.582,8,8,8h24c4.418,0,8-3.582,8-8S332.418,380.051,328,380.051z"/>
	</g>
</g>
<g>
	<g>
		<path d="M472,452.051H256c-0.685,0.045-1.36,0.183-2.008,0.408c-1.395-2.57-3.467-4.709-5.992-6.184v-17.424
			c-0.041-0.27-0.097-0.537-0.168-0.8H384c13.255,0,24-10.745,24-24v-32c0-13.255-10.745-24-24-24H248v-16h136
			c13.255,0,24-10.745,24-24v-32c0-13.255-10.745-24-24-24H248v-16h175.2c30.928-0.092,55.925-25.239,55.833-56.167
			s-25.239-55.925-56.167-55.833c-5.727,0.017-11.418,0.913-16.874,2.656c0.528-4.198,0.795-8.425,0.8-12.656
			C405.753,52.204,354.773,2.909,292.926,3.949c-45.131,0.758-85.397,28.534-102.134,70.455
			c-32.368-20.07-74.878-10.101-94.948,22.267c-6.534,10.537-10.106,22.641-10.34,35.037c-26.555-16.137-61.164-7.691-77.301,18.865
			s-7.691,61.164,18.865,77.301c8.967,5.449,19.279,8.282,29.772,8.179H232v16H96c-13.255,0-24,10.745-24,24v32
			c0,13.255,10.745,24,24,24h136v16H96c-13.255,0-24,10.745-24,24v32c0,13.255,10.745,24,24,24h136.168
			c-0.071,0.263-0.127,0.53-0.168,0.8v17.392c-2.525,1.475-4.597,3.614-5.992,6.184c-0.65-0.214-1.325-0.341-2.008-0.376H8
			c-4.418,0-8,3.582-8,8s3.582,8,8,8h216c0.685-0.045,1.36-0.183,2.008-0.408c4.102,7.732,13.695,10.675,21.427,6.573
			c2.799-1.485,5.088-3.774,6.573-6.573c0.643,0.224,1.313,0.361,1.992,0.408h216c4.418,0,8-3.582,8-8S476.418,452.051,472,452.051z
			 M56.84,220.051c-22.089-0.359-39.704-18.556-39.345-40.645c0.359-22.089,18.556-39.704,40.645-39.345
			c13.446,0.219,25.882,7.179,33.1,18.525c2.412,3.702,7.369,4.747,11.07,2.334c3.211-2.093,4.487-6.169,3.042-9.718
			c-2.519-6.073-3.834-12.577-3.872-19.152c0.321-28.992,24.048-52.253,53.04-52c12.919,0.053,25.381,4.785,35.08,13.32
			c3.331,2.903,8.384,2.556,11.287-0.775c0.788-0.904,1.362-1.973,1.681-3.129c14.638-50.936,67.796-80.361,118.731-65.723
			c40.442,11.622,68.595,48.236,69.437,90.307c-0.034,8.386-1.205,16.729-3.48,24.8c-1.179,4.258,1.316,8.666,5.574,9.845
			c2.297,0.636,4.759,0.215,6.714-1.149c6.924-4.878,15.186-7.496,23.656-7.496c22.091,0,40,17.909,40,40s-17.909,40-40,40H248v-8
			c0-4.418-3.582-8-8-8s-8,3.582-8,8v8H56.84z M96,316.051c-4.418,0-8-3.582-8-8v-32c0-4.418,3.582-8,8-8h288c4.418,0,8,3.582,8,8
			v32c0,4.418-3.582,8-8,8H96z M96,412.051c-4.418,0-8-3.582-8-8v-32c0-4.418,3.582-8,8-8h288c4.418,0,8,3.582,8,8v32
			c0,4.418-3.582,8-8,8H96z"/>
	</g>
</g>
<g>
	<g>
		<path d="M240,156.051c-4.418,0-8,3.582-8,8v16c0,4.418,3.582,8,8,8s8-3.582,8-8v-16C248,159.633,244.418,156.051,240,156.051z"/>
	</g>
</g>
<g>
</g>
<g>
</g>
<g>
</g>
<g>
</g>
<g>
</g>
<g>
</g>
<g>
</g>
<g>
</g>
<g>
</g>
<g>
</g>
<g>
</g>
<g>
</g>
<g>
</g>
<g>
</g>
<g>
</g>
</svg>
