<?xml version="1.0" encoding="iso-8859-1"?>
<!-- Generator: Adobe Illustrator 19.0.0, SVG Export Plug-In . SVG Version: 6.00 Build 0)  -->
<svg version="1.1" id="Capa_1" xmlns="http://www.w3.org/2000/svg" xmlns:xlink="http://www.w3.org/1999/xlink" x="0px" y="0px"
	 viewBox="0 0 479.99 479.99" style="enable-background:new 0 0 479.99 479.99;" xml:space="preserve">
<g>
	<g>
		<path d="M423.167,172.423c-5.858-0.005-11.68,0.921-17.248,2.744c0.539-4.449,0.807-8.927,0.8-13.408
			c1.261-61.547-47.61-112.463-109.157-113.724c-47.493-0.973-90.384,28.26-106.843,72.82c-10.804-6.931-23.364-10.631-36.2-10.664
			c-38.398,0.37-69.266,31.721-69.04,70.12c-8.657-5.172-18.555-7.898-28.64-7.888c-31.909,0.522-57.353,26.812-56.831,58.721
			c0.51,31.161,25.638,56.304,56.799,56.831h47.16c4.418,0,8-3.582,8-8s-3.582-8-8-8h-47.16
			c-23.072-0.452-41.41-19.521-40.958-42.594c0.439-22.436,18.522-40.519,40.958-40.958c13.988,0.057,26.955,7.336,34.288,19.248
			c2.322,3.759,7.252,4.923,11.011,2.601c3.315-2.048,4.672-6.187,3.213-9.801c-2.534-6.387-3.848-13.193-3.872-20.064
			c-0.293-29.608,23.433-53.867,53.04-54.232c12.97,0.097,25.441,5.016,34.984,13.8c3.274,2.967,8.333,2.719,11.3-0.555
			c0.857-0.946,1.476-2.083,1.804-3.317c12.902-51.157,64.832-82.168,115.989-69.266c43.26,10.911,73.207,50.312,72.139,94.914
			c-0.034,8.726-1.209,17.411-3.496,25.832c-1.147,4.267,1.382,8.656,5.649,9.803c2.331,0.627,4.821,0.167,6.775-1.251
			c6.816-4.999,15.044-7.702,23.496-7.72c23.075,0.308,41.53,19.264,41.222,42.338c-0.302,22.624-18.558,40.898-41.182,41.222h-47.2
			c-4.418,0-8,3.582-8,8s3.582,8,8,8h47.2c31.909-0.531,57.346-26.829,56.815-58.737
			C479.463,198.077,454.327,172.941,423.167,172.423z"/>
	</g>
</g>
<g>
	<g>
		<path d="M348.439,201.959c-2.203-1.493-5.003-1.793-7.472-0.8c-26.192,10.608-59.2,8-98-7.696c-1.924-0.778-4.076-0.778-6,0
			c-38.832,15.712-71.824,18.296-98,7.696c-4.096-1.657-8.759,0.32-10.416,4.416c-0.388,0.958-0.586,1.982-0.584,3.016v93.32
			c0,106.328,109.312,129.68,110.4,129.904c1.056,0.218,2.144,0.218,3.2,0c1.104-0.224,110.4-23.576,110.4-129.904v-93.32
			C351.967,205.931,350.644,203.446,348.439,201.959z M335.967,301.911c0,87.568-82.792,110.728-96,113.864
			c-12.528-3.096-96-27.032-96-113.864v-82.184c27.264,7.456,59.496,4.064,96-10.224c36.504,14.288,68.728,17.68,96,10.224V301.911z
			"/>
	</g>
</g>
<g>
	<g>
		<path d="M287.967,284.335h-5.712v-5.44c-1.029-22.36-19.923-39.691-42.288-38.792c-22.362-0.89-41.25,16.436-42.288,38.792v5.44
			h-5.712c-4.418,0-8,3.582-8,8v73.92c0,4.418,3.582,8,8,8h96c4.418,0,8-3.582,8-8v-73.92
			C295.967,287.917,292.385,284.335,287.967,284.335z M213.679,278.895c1.07-13.501,12.772-23.647,26.288-22.792
			c13.525-0.881,25.243,9.279,26.288,22.792v5.44h-52.576V278.895z M279.967,358.255h-80v-57.92h80V358.255z"/>
	</g>
</g>
<g>
	<g>
		<path d="M251.158,312.8c-4.401-6.163-12.964-7.592-19.127-3.191c-6.163,4.401-7.592,12.964-3.191,19.127
			c0.88,1.233,1.959,2.311,3.191,3.191h-0.064c0,0.056,0,0.112,0,0.176v11.2c0,4.418,3.582,8,8,8s8-3.582,8-8v-11.2
			c0-0.064,0-0.12,0-0.176C254.13,327.526,255.559,318.963,251.158,312.8z M240.191,323.29c-1.324,0.062-2.448-0.961-2.509-2.285
			c-0.002-0.036-0.003-0.073-0.003-0.109c-0.027-1.293,0.995-2.365,2.288-2.4c1.324-0.062,2.448,0.961,2.509,2.285
			C242.538,322.104,241.515,323.228,240.191,323.29z"/>
	</g>
</g>
<g>
</g>
<g>
</g>
<g>
</g>
<g>
</g>
<g>
</g>
<g>
</g>
<g>
</g>
<g>
</g>
<g>
</g>
<g>
</g>
<g>
</g>
<g>
</g>
<g>
</g>
<g>
</g>
<g>
</g>
</svg>
